<?xml version="1.0" encoding="utf-8"?>
<!-- Generator: Adobe Illustrator 16.0.0, SVG Export Plug-In . SVG Version: 6.00 Build 0)  -->
<!DOCTYPE svg PUBLIC "-//W3C//DTD SVG 1.1//EN" "http://www.w3.org/Graphics/SVG/1.1/DTD/svg11.dtd">
<svg version="1.1" id="Layer_1" xmlns="http://www.w3.org/2000/svg" xmlns:xlink="http://www.w3.org/1999/xlink" x="0px" y="0px"
	 width="16px" height="44px" viewBox="0 0 16 44" enable-background="new 0 0 16 44" xml:space="preserve">
<path fill="#FFFFFF" d="M8.027,15.983c-0.776,0-1.977-0.882-3.241-0.85c-1.669,0.021-3.2,0.967-4.061,2.466
	c-1.732,3.008-0.446,7.45,1.244,9.896c0.829,1.189,1.807,2.528,3.104,2.486c1.244-0.054,1.711-0.807,3.22-0.807
	c1.498,0,1.924,0.807,3.242,0.775c1.339-0.022,2.188-1.212,3.008-2.414c0.945-1.381,1.339-2.72,1.359-2.795
	c-0.031-0.01-2.603-0.998-2.635-3.975c-0.022-2.487,2.029-3.677,2.125-3.73c-1.169-1.711-2.965-1.902-3.592-1.945
	C10.163,14.963,8.793,15.983,8.027,15.983z M10.791,13.475c0.69-0.83,1.147-1.988,1.021-3.136c-0.988,0.042-2.18,0.659-2.892,1.488
	c-0.638,0.733-1.19,1.914-1.042,3.04C8.974,14.952,10.101,14.304,10.791,13.475"/>
</svg>
