<?xml version="1.0" encoding="utf-8"?>
<!-- Generator: Adobe Illustrator 16.0.0, SVG Export Plug-In . SVG Version: 6.00 Build 0)  -->
<!DOCTYPE svg PUBLIC "-//W3C//DTD SVG 1.1//EN" "http://www.w3.org/Graphics/SVG/1.1/DTD/svg11.dtd">
<svg version="1.1" id="Layer_1" xmlns="http://www.w3.org/2000/svg" xmlns:xlink="http://www.w3.org/1999/xlink" x="0px" y="0px"
	 width="16px" height="44px" viewBox="0 0 16 44" enable-background="new 0 0 16 44" xml:space="preserve">
<rect y="7.25" display="none" width="16" height="33.917"/>
<path display="none" fill="#FFFFFF" d="M8.026,16.035c-0.767,0-1.952-0.872-3.201-0.84c-1.648,0.021-3.16,0.955-4.01,2.436
	c-1.71,2.97-0.44,7.356,1.229,9.771c0.818,1.175,1.784,2.497,3.064,2.456c1.229-0.054,1.69-0.798,3.18-0.798
	c1.479,0,1.899,0.798,3.202,0.767c1.322-0.022,2.161-1.197,2.97-2.385c0.934-1.363,1.321-2.686,1.343-2.76
	c-0.031-0.009-2.57-0.985-2.602-3.924c-0.023-2.456,2.004-3.632,2.098-3.684c-1.153-1.69-2.928-1.879-3.546-1.92
	C10.135,15.028,8.782,16.035,8.026,16.035z M10.755,13.559c0.682-0.819,1.134-1.963,1.008-3.097
	c-0.976,0.042-2.152,0.65-2.855,1.469c-0.63,0.725-1.175,1.89-1.028,3.002C8.96,15.017,10.073,14.376,10.755,13.559"/>
<path display="none" fill="#FFFFFF" stroke="#FFFFFF" stroke-miterlimit="10" d="M15.248,27.743l-4.069-4.072
	c2.155-2.525,1.858-6.318-0.666-8.474c-2.523-2.155-6.317-1.856-8.473,0.667c-2.156,2.524-1.857,6.317,0.667,8.472
	c2.25,1.923,5.564,1.921,7.812-0.004l4.067,4.071c0.173,0.191,0.471,0.205,0.661,0.031s0.205-0.471,0.031-0.663
	C15.268,27.762,15.259,27.75,15.248,27.743L15.248,27.743z M1.572,19.78c0.005-2.791,2.271-5.052,5.062-5.047
	c2.79,0.003,5.052,2.271,5.048,5.062c-0.003,2.79-2.265,5.049-5.053,5.049C3.837,24.837,1.574,22.574,1.572,19.78z"/>
<g id="bag_large">
	
		<rect id="boundingbox" x="0.599" y="3.916" display="none" stroke="#FFFFFF" stroke-miterlimit="10" width="14.8" height="38.307"/>
	<path id="bag" fill="#FFFFFF" stroke="#FFFFFF" stroke-miterlimit="10" d="M13.223,16.105h-1.559
		c-0.169-2.025-1.95-3.529-3.974-3.357c-1.789,0.15-3.207,1.569-3.358,3.357H2.776c-1.203,0-2.177,0.974-2.177,2.177v9.577
		c0,1.202,0.974,2.176,2.177,2.176h10.447c1.201,0,2.177-0.974,2.177-2.176v-9.577C15.399,17.079,14.424,16.105,13.223,16.105z
		 M7.998,13.602c1.433,0.005,2.634,1.081,2.797,2.503H5.202C5.365,14.683,6.565,13.606,7.998,13.602z M14.527,27.858
		c0,0.721-0.583,1.305-1.305,1.305l0,0H2.776c-0.722,0-1.307-0.584-1.307-1.305l0,0v-9.577c0-0.723,0.585-1.307,1.307-1.307h10.447
		c0.722,0,1.305,0.584,1.305,1.307V27.858z"/>
</g>
</svg>
